<svg width="25" height="26" viewBox="0 0 25 26" fill="none" xmlns="http://www.w3.org/2000/svg">
<path d="M20.8367 4.73975H4.34485V18.0903H9.84207L12.4598 21.7551L16.6482 18.0903H20.8367V4.73975Z" fill="#253DE8"/>
<path d="M5.20833 2.95898C4.05937 2.95898 3.125 3.89336 3.125 5.04232V17.5423C3.125 18.6913 4.05937 19.6257 5.20833 19.6257H8.94375L12.5 23.1819L16.0562 19.6257H19.7917C20.9406 19.6257 21.875 18.6913 21.875 17.5423V5.04232C21.875 3.89336 20.9406 2.95898 19.7917 2.95898H5.20833ZM19.7917 17.5423H15.1938L12.5 20.2361L9.80625 17.5423H5.20833V5.04232H19.7917V17.5423Z" fill="#253DE8"/>
<path d="M7.29169 8.16748H17.7084V10.2508H7.29169V8.16748ZM7.29169 12.3341H14.5834V14.4175H7.29169V12.3341Z" fill="white"/>
</svg>
