<svg width="25" height="25" viewBox="0 0 25 25" fill="none" xmlns="http://www.w3.org/2000/svg">
<path d="M22.1608 20.8758V13.0498C22.1608 12.5053 22.0497 11.9665 21.8343 11.4665C21.6188 10.9665 21.3035 10.5157 20.9078 10.1418L13.5348 3.17376C13.1634 2.82269 12.6718 2.62708 12.1608 2.62708C11.6497 2.62708 11.1581 2.82269 10.7868 3.17376L3.41377 10.1418C3.01799 10.5157 2.70272 10.9665 2.48726 11.4665C2.27181 11.9665 2.16071 12.5053 2.16077 13.0498V20.8758C2.16077 21.4062 2.37148 21.9149 2.74655 22.29C3.12163 22.665 3.63033 22.8758 4.16077 22.8758H20.1608C20.6912 22.8758 21.1999 22.665 21.575 22.29C21.9501 21.9149 22.1608 21.4062 22.1608 20.8758Z" fill="#253DE8"/>
</svg>
