<svg width="25" height="25" viewBox="0 0 25 25" fill="none" xmlns="http://www.w3.org/2000/svg">
<path d="M21.8795 12.8757V5.37573C21.8795 4.97791 21.7214 4.59638 21.4401 4.31507C21.1588 4.03377 20.7773 3.87573 20.3795 3.87573H5.37946C4.98163 3.87573 4.6001 4.03377 4.3188 4.31507C4.03749 4.59638 3.87946 4.97791 3.87946 5.37573V20.3757C3.87946 20.7736 4.03749 21.1551 4.3188 21.4364C4.6001 21.7177 4.98163 21.8757 5.37946 21.8757H12.8795" fill="#253DE8"/>
<path d="M21.8795 12.8757V5.37573C21.8795 4.97791 21.7214 4.59638 21.4401 4.31507C21.1588 4.03377 20.7773 3.87573 20.3795 3.87573H5.37946C4.98163 3.87573 4.6001 4.03377 4.3188 4.31507C4.03749 4.59638 3.87946 4.97791 3.87946 5.37573V20.3757C3.87946 20.7736 4.03749 21.1551 4.3188 21.4364C4.6001 21.7177 4.98163 21.8757 5.37946 21.8757H12.8795" stroke="#253DE8" stroke-width="2" stroke-linecap="round" stroke-linejoin="round"/>
<path d="M16.8795 21.8757C19.6409 21.8757 21.8795 19.6372 21.8795 16.8757C21.8795 14.1143 19.6409 11.8757 16.8795 11.8757C14.118 11.8757 11.8795 14.1143 11.8795 16.8757C11.8795 19.6372 14.118 21.8757 16.8795 21.8757Z" fill="white" stroke="white" stroke-width="2"/>
<path d="M16.8795 19.8757C18.5363 19.8757 19.8795 18.5326 19.8795 16.8757C19.8795 15.2189 18.5363 13.8757 16.8795 13.8757C15.2226 13.8757 13.8795 15.2189 13.8795 16.8757C13.8795 18.5326 15.2226 19.8757 16.8795 19.8757Z" fill="white" stroke="#253DE8" stroke-width="2"/>
<path d="M19.3795 18.8757L21.8795 20.8757L19.3795 18.8757Z" fill="#253DE8"/>
<path d="M19.3795 18.8757L21.8795 20.8757" stroke="#253DE8" stroke-width="2" stroke-linecap="round" stroke-linejoin="round"/>
<path d="M7.87946 8.87573H17.8795H7.87946Z" fill="#253DE8"/>
<path d="M7.87946 8.87573H17.8795" stroke="white" stroke-width="2" stroke-linecap="round" stroke-linejoin="round"/>
<path d="M7.87946 12.8757H13.8795H7.87946Z" fill="#253DE8"/>
<path d="M7.87946 12.8757H13.8795" stroke="white" stroke-width="2" stroke-linecap="round" stroke-linejoin="round"/>
</svg>
