<svg width="24" height="29" viewBox="0 0 24 29" fill="none" xmlns="http://www.w3.org/2000/svg">
<g clip-path="url(#clip0)">
<path d="M17.1429 24.6854V26.8283C17.1429 27.5384 16.5672 28.114 15.8571 28.114H1.28571C0.575625 28.114 0 27.5384 0 26.8283V7.114C0 6.40391 0.575625 5.82828 1.28571 5.82828H5.14286V21.6854C5.14286 23.3397 6.48863 24.6854 8.14286 24.6854H17.1429ZM17.1429 6.25685V0.685425H8.14286C7.43277 0.685425 6.85714 1.26105 6.85714 1.97114V21.6854C6.85714 22.3955 7.43277 22.9711 8.14286 22.9711H22.7143C23.4244 22.9711 24 22.3955 24 21.6854V7.54257H18.4286C17.7214 7.54257 17.1429 6.964 17.1429 6.25685ZM23.6234 4.59459L20.0908 1.06198C19.8497 0.820876 19.5227 0.685427 19.1817 0.685425L18.8571 0.685425V5.82828H24V5.50369C24 5.16271 23.8645 4.8357 23.6234 4.59459Z" fill="white"/>
</g>
<defs>
<clipPath id="clip0">
<rect width="24" height="27.4286" fill="white" transform="translate(0 0.685425)"/>
</clipPath>
</defs>
</svg>
