<svg width="51" height="51" viewBox="0 0 51 51" fill="none" xmlns="http://www.w3.org/2000/svg">
<circle cx="25.5981" cy="25.9738" r="25" fill="#253DE8"/>
<path fill-rule="evenodd" clip-rule="evenodd" d="M25.8265 15.4578C26.7308 15.4578 27.4639 16.1909 27.4639 17.0952V36.6175C27.4639 37.5218 26.7308 38.2549 25.8265 38.2549C24.9222 38.2549 24.1891 37.5218 24.1891 36.6175V17.0952C24.1891 16.1909 24.9222 15.4578 25.8265 15.4578Z" fill="white"/>
<path fill-rule="evenodd" clip-rule="evenodd" d="M14.428 26.8562C14.428 25.9519 15.1611 25.2188 16.0654 25.2188L35.5877 25.2188C36.492 25.2188 37.2251 25.9519 37.2251 26.8562C37.2251 27.7606 36.492 28.4937 35.5877 28.4937L16.0654 28.4937C15.1611 28.4937 14.428 27.7606 14.428 26.8562Z" fill="white"/>
</svg>
