<svg width="101" height="172" viewBox="0 0 101 172" fill="none" xmlns="http://www.w3.org/2000/svg">
<path d="M45.5245 14.453V117.46L1.43018 106.053V26.8156L45.5245 14.453Z" fill="#768DFF"/>
<path d="M99.5699 12.5245V120.353L55.4841 131.751V0.15332L99.5699 12.5245Z" fill="#253DE8"/>
<path d="M4.68082 163.98H15.1282V160.278H4.68082V156.324H16.36V152.544H0.92749V171.715H16.5535V167.896H4.68082V163.98Z" fill="white"/>
<path d="M28.3938 152.265C26.4139 152.265 24.7566 153.063 23.4861 154.372V152.544H19.7263V171.715H23.4861V161.017C23.4861 157.439 25.3434 156.045 27.678 156.045C29.8964 156.045 31.6763 157.517 31.6763 161.257V171.715H35.4361V160.901C35.4361 155.371 32.8694 152.265 28.3938 152.265Z" fill="white"/>
<path d="M49.5981 170.366C48.1341 171.799 45.3675 172.35 43.4264 171.754C41.0531 171.002 39.9826 169.05 39.9826 165.549V155.967H37.4094V152.55H39.9826V148.537H43.7424V152.55H47.6569V155.967H43.7424V165.394C43.7424 167.105 44.1035 167.818 44.929 168.136C45.7287 168.454 46.9088 168.097 47.5408 167.462L49.5981 170.366Z" fill="white"/>
<path d="M55.3379 154.333V152.544H51.5781V171.715H55.3379V161.018C55.3379 157.439 57.2339 156.045 59.5298 156.045C60.0844 156.045 60.5616 156.123 61.0324 156.324L61.7418 152.388C61.2645 152.311 60.7551 152.226 60.2392 152.226C58.2658 152.226 56.6019 153.024 55.3379 154.333Z" fill="white"/>
<path d="M80.2245 162.133C80.2245 156.726 77.2579 152.265 71.7182 152.265C66.1785 152.265 62.5413 156.719 62.5413 162.133C62.5413 167.54 66.301 172 71.8407 172C75.3619 172 78.0898 170.211 79.6312 167.501L76.1874 165.834C75.3168 167.267 73.8528 168.22 71.8407 168.22C69.0677 168.22 67.3264 166.437 66.7783 164.045H80.0697C80.1793 163.403 80.2245 162.768 80.2245 162.133ZM66.6944 160.46C67.2039 157.951 68.8742 156.038 71.7182 156.038C74.5687 156.038 75.9488 157.951 76.3486 160.46H66.6944Z" fill="white"/>
<path d="M100.081 162.133C100.081 156.726 97.1146 152.265 91.5749 152.265C86.0352 152.265 82.3979 156.719 82.3979 162.133C82.3979 167.54 86.1577 172 91.6974 172C95.2186 172 97.9465 170.211 99.4943 167.501L96.0441 165.834C95.1735 167.267 93.716 168.22 91.6974 168.22C88.9244 168.22 87.1831 166.437 86.635 164.045H99.9264C100.042 163.403 100.081 162.768 100.081 162.133ZM86.5511 160.46C87.067 157.951 88.7309 156.038 91.5749 156.038C94.4254 156.038 95.8055 157.951 96.2053 160.46H86.5511Z" fill="white"/>
</svg>
