<svg width="25" height="25" viewBox="0 0 25 25" fill="none" xmlns="http://www.w3.org/2000/svg">
<path d="M21.1295 12.8757V5.37573C21.1295 4.97791 20.9714 4.59638 20.6901 4.31507C20.4088 4.03377 20.0273 3.87573 19.6295 3.87573H4.62946C4.23163 3.87573 3.8501 4.03377 3.5688 4.31507C3.28749 4.59638 3.12946 4.97791 3.12946 5.37573V20.3757C3.12946 20.7736 3.28749 21.1551 3.5688 21.4364C3.8501 21.7177 4.23163 21.8757 4.62946 21.8757H12.1295" stroke="#253DE8" stroke-width="2" stroke-linecap="round" stroke-linejoin="round"/>
<path d="M16.1295 19.8757C17.7863 19.8757 19.1295 18.5326 19.1295 16.8757C19.1295 15.2189 17.7863 13.8757 16.1295 13.8757C14.4726 13.8757 13.1295 15.2189 13.1295 16.8757C13.1295 18.5326 14.4726 19.8757 16.1295 19.8757Z" stroke="#253DE8" stroke-width="2"/>
<path d="M18.6295 18.8757L21.1295 20.8757" stroke="#253DE8" stroke-width="2" stroke-linecap="round" stroke-linejoin="round"/>
<path d="M7.12946 8.87573H17.1295" stroke="#253DE8" stroke-width="2" stroke-linecap="round" stroke-linejoin="round"/>
<path d="M7.12946 12.8757H11.1295" stroke="#253DE8" stroke-width="2" stroke-linecap="round" stroke-linejoin="round"/>
</svg>
