<svg width="25" height="25" viewBox="0 0 25 25" fill="none" xmlns="http://www.w3.org/2000/svg">
<g clip-path="url(#clip0)">
<path d="M22.1607 20.8758V13.0498C22.1608 12.5053 22.0497 11.9665 21.8342 11.4665C21.6188 10.9665 21.3035 10.5157 20.9077 10.1418L13.5347 3.17376C13.1634 2.82269 12.6717 2.62708 12.1607 2.62708C11.6497 2.62708 11.158 2.82269 10.7867 3.17376L3.41371 10.1418C3.01793 10.5157 2.70266 10.9665 2.4872 11.4665C2.27175 11.9665 2.16065 12.5053 2.16071 13.0498V20.8758C2.16071 21.4062 2.37142 21.9149 2.74649 22.29C3.12156 22.665 3.63027 22.8758 4.16071 22.8758H20.1607C20.6911 22.8758 21.1998 22.665 21.5749 22.29C21.95 21.9149 22.1607 21.4062 22.1607 20.8758Z" stroke="#253DE8" stroke-width="3" stroke-linecap="round" stroke-linejoin="round"/>
</g>
<defs>
<clipPath id="clip0">
<rect width="24" height="24" fill="white" transform="translate(0.160706 0.875732)"/>
</clipPath>
</defs>
</svg>
