<svg width="25" height="25" viewBox="0 0 25 25" fill="none" xmlns="http://www.w3.org/2000/svg">
<path d="M5.12091 2.87573C4.01791 2.87573 3.12091 3.77273 3.12091 4.87573V16.8757C3.12091 17.9787 4.01791 18.8757 5.12091 18.8757H8.70691L12.1209 22.2897L15.5349 18.8757H19.1209C20.2239 18.8757 21.1209 17.9787 21.1209 16.8757V4.87573C21.1209 3.77273 20.2239 2.87573 19.1209 2.87573H5.12091ZM19.1209 16.8757H14.7069L12.1209 19.4617L9.53491 16.8757H5.12091V4.87573H19.1209V16.8757Z" fill="#253DE8"/>
<path d="M7.12091 7.87573H17.1209V9.87573H7.12091V7.87573ZM7.12091 11.8757H14.1209V13.8757H7.12091V11.8757Z" fill="#253DE8"/>
</svg>
