<svg width="31" height="31" viewBox="0 0 31 31" fill="none" xmlns="http://www.w3.org/2000/svg">
<g clip-path="url(#clip0)">
<path d="M16.8949 6.75377L15.0624 6.75002C10.8824 6.74002 7.25361 10.1363 7.22486 14.25V18.9875C7.22486 19.975 7.09986 20.9388 6.56111 21.76L6.20236 22.3075C5.65611 23.1375 6.24361 24.25 7.22486 24.25H24.7624C25.7436 24.25 26.3299 23.1375 25.7849 22.3075L25.4261 21.76C24.8886 20.9388 24.7624 19.9738 24.7624 18.9863V14.2513C24.7124 10.1363 21.0749 6.76377 16.8949 6.75377V6.75377Z" stroke="#768DFF" stroke-width="2" stroke-linecap="round" stroke-linejoin="round"/>
<path d="M19.7436 24.25C19.7436 25.2446 19.3485 26.1984 18.6452 26.9017C17.942 27.6049 16.9882 28 15.9936 28C14.999 28 14.0452 27.6049 13.3419 26.9017C12.6387 26.1984 12.2436 25.2446 12.2436 24.25" stroke="#768DFF" stroke-width="2" stroke-linecap="round" stroke-linejoin="round"/>
<path d="M15.9936 3C16.6566 3 17.2925 3.26339 17.7614 3.73223C18.2302 4.20107 18.4936 4.83696 18.4936 5.5V6.75H13.4936V5.5C13.4936 4.83696 13.757 4.20107 14.2258 3.73223C14.6947 3.26339 15.3306 3 15.9936 3Z" stroke="#768DFF" stroke-width="2" stroke-linecap="round" stroke-linejoin="round"/>
<circle cx="23.9936" cy="11.0001" r="6.06087" fill="#253DE8"/>
</g>
<defs>
<clipPath id="clip0">
<rect width="30" height="30" fill="white" transform="translate(0.993591 0.5)"/>
</clipPath>
</defs>
</svg>
