<svg width="25" height="25" viewBox="0 0 25 25" fill="none" xmlns="http://www.w3.org/2000/svg">
<path d="M12.8399 11.8757C11.779 11.8757 10.7616 11.4543 10.0115 10.7042C9.26133 9.95401 8.8399 8.9366 8.8399 7.87573C8.8399 6.81487 9.26133 5.79745 10.0115 5.04731C10.7616 4.29716 11.779 3.87573 12.8399 3.87573C13.9008 3.87573 14.9182 4.29716 15.6683 5.04731C16.4185 5.79745 16.8399 6.81487 16.8399 7.87573C16.8399 8.9366 16.4185 9.95401 15.6683 10.7042C14.9182 11.4543 13.9008 11.8757 12.8399 11.8757Z" stroke="#253DE8" stroke-width="2" stroke-linecap="round"/>
<path d="M4.8399 21.8757V20.8757C4.8399 19.2844 5.47205 17.7583 6.59726 16.6331C7.72248 15.5079 9.24861 14.8757 10.8399 14.8757H14.8399C16.4312 14.8757 17.9573 15.5079 19.0825 16.6331C20.2078 17.7583 20.8399 19.2844 20.8399 20.8757V21.8757" stroke="#253DE8" stroke-width="2" stroke-linecap="round"/>
</svg>
