<svg width="121" height="121" viewBox="0 0 121 121" fill="none" xmlns="http://www.w3.org/2000/svg">
<path d="M80.7351 120.75H67.4018V107.417H80.7351V120.75ZM67.4018 74.0833H54.0684V107.417H67.4018V74.0833ZM120.735 60.75H107.402V87.4167H120.735V60.75ZM107.402 47.4167H94.0684V60.75H107.402V47.4167ZM27.4018 60.75H14.0684V74.0833H27.4018V60.75ZM14.0684 47.4167H0.735107V60.75H14.0684V47.4167ZM60.7351 14.0833H74.0684V0.75H60.7351V14.0833ZM10.7351 10.75V30.75H30.7351V10.75H10.7351ZM40.7351 40.75H0.735107V0.75H40.7351V40.75ZM10.7351 90.75V110.75H30.7351V90.75H10.7351ZM40.7351 120.75H0.735107V80.75H40.7351V120.75ZM90.7351 10.75V30.75H110.735V10.75H90.7351ZM120.735 40.75H80.7351V0.75H120.735V40.75ZM107.402 107.417V87.4167H80.7351V100.75H94.0684V120.75H120.735V107.417H107.402ZM94.0684 60.75H67.4018V74.0833H94.0684V60.75ZM67.4018 47.4167H27.4018V60.75H40.7351V74.0833H54.0684V60.75H67.4018V47.4167ZM74.0684 40.75V27.4167H60.7351V14.0833H47.4018V40.75H74.0684ZM25.7351 15.75H15.7351V25.75H25.7351V15.75ZM25.7351 95.75H15.7351V105.75H25.7351V95.75ZM105.735 15.75H95.7351V25.75H105.735V15.75Z" fill="white"/>
</svg>
