<svg width="40" height="41" viewBox="0 0 40 41" fill="none" xmlns="http://www.w3.org/2000/svg">
<path d="M25 35.9476H21.6667V32.6143H25V35.9476ZM21.6667 24.281H18.3333V32.6143H21.6667V24.281ZM35 20.9476H31.6667V27.6143H35V20.9476ZM31.6667 17.6143H28.3333V20.9476H31.6667V17.6143ZM11.6667 20.9476H8.33333V24.281H11.6667V20.9476ZM8.33333 17.6143H5V20.9476H8.33333V17.6143ZM20 9.28097H23.3333V5.94763H20V9.28097ZM7.5 8.44763V13.4476H12.5V8.44763H7.5ZM15 15.9476H5V5.94763H15V15.9476ZM7.5 28.4476V33.4476H12.5V28.4476H7.5ZM15 35.9476H5V25.9476H15V35.9476ZM27.5 8.44763V13.4476H32.5V8.44763H27.5ZM35 15.9476H25V5.94763H35V15.9476ZM31.6667 32.6143V27.6143H25V30.9476H28.3333V35.9476H35V32.6143H31.6667ZM28.3333 20.9476H21.6667V24.281H28.3333V20.9476ZM21.6667 17.6143H11.6667V20.9476H15V24.281H18.3333V20.9476H21.6667V17.6143ZM23.3333 15.9476V12.6143H20V9.28097H16.6667V15.9476H23.3333ZM11.25 9.69763H8.75V12.1976H11.25V9.69763ZM11.25 29.6976H8.75V32.1976H11.25V29.6976ZM31.25 9.69763H28.75V12.1976H31.25V9.69763Z" fill="#768DFF"/>
</svg>
