<svg width="24" height="25" viewBox="0 0 24 25" fill="none" xmlns="http://www.w3.org/2000/svg">
<path d="M5.49998 15.3997C6.37463 15.3971 7.2162 15.0651 7.85698 14.4697L14.117 18.0467C13.9072 18.8664 13.9997 19.7341 14.3774 20.4911C14.7552 21.2481 15.3929 21.8437 16.1739 22.1689C16.9549 22.4942 17.827 22.5272 18.6304 22.2621C19.4337 21.9969 20.1147 21.4512 20.5487 20.725C20.9827 19.9988 21.1406 19.1405 20.9935 18.3074C20.8464 17.4743 20.4041 16.722 19.7477 16.1883C19.0913 15.6545 18.2646 15.3751 17.419 15.4011C16.5734 15.4271 15.7654 15.7567 15.143 16.3297L8.88298 12.7527C8.94898 12.5027 8.98498 12.2437 8.99098 11.9847L15.141 8.46974C15.7332 9.00852 16.4926 9.32725 17.2919 9.37246C18.0912 9.41767 18.8818 9.18662 19.5309 8.71806C20.1801 8.2495 20.6484 7.57195 20.8572 6.79907C21.066 6.02618 21.0027 5.205 20.6778 4.47328C20.3529 3.74156 19.7863 3.14382 19.073 2.78034C18.3597 2.41686 17.543 2.30976 16.7601 2.47701C15.9772 2.64425 15.2756 3.07566 14.773 3.69887C14.2705 4.32207 13.9975 5.09915 14 5.89974C14.004 6.18774 14.043 6.47475 14.117 6.75275L8.43297 9.99975C8.10335 9.48981 7.64674 9.07439 7.10799 8.79432C6.56925 8.51425 5.96691 8.37915 5.36015 8.4023C4.7534 8.42545 4.1631 8.60605 3.64726 8.92636C3.13142 9.24667 2.70779 9.69567 2.41798 10.2292C2.12817 10.7628 1.98216 11.3626 1.99429 11.9697C2.00642 12.5767 2.17628 13.1702 2.48717 13.6918C2.79806 14.2134 3.2393 14.6451 3.76752 14.9445C4.29574 15.244 4.89278 15.4009 5.49998 15.3997Z" fill="white"/>
</svg>
